<?xml version="1.0" encoding="UTF-8" standalone="no"?>
<svg
   xmlns:dc="http://purl.org/dc/elements/1.1/"
   xmlns:cc="http://creativecommons.org/ns#"
   xmlns:rdf="http://www.w3.org/1999/02/22-rdf-syntax-ns#"
   xmlns:svg="http://www.w3.org/2000/svg"
   xmlns="http://www.w3.org/2000/svg"
   xmlns:sodipodi="http://sodipodi.sourceforge.net/DTD/sodipodi-0.dtd"
   xmlns:inkscape="http://www.inkscape.org/namespaces/inkscape"
   id="Layer_1"
   data-name="Layer 1"
   viewBox="0 0 512 512"
   version="1.1"
   sodipodi:docname="add.svg"
   inkscape:version="1.0.2 (e86c870879, 2021-01-15)"
   inkscape:export-filename="/media/crimson_leaf/Storage/Projects/Godot/Toonink/assets/icons/add.png"
   inkscape:export-xdpi="12"
   inkscape:export-ydpi="12">
  <metadata
     id="metadata82">
    <rdf:RDF>
      <cc:Work
         rdf:about="">
        <dc:format>image/svg+xml</dc:format>
        <dc:type
           rdf:resource="http://purl.org/dc/dcmitype/StillImage" />
        <dc:title>plus-flat</dc:title>
      </cc:Work>
    </rdf:RDF>
  </metadata>
  <sodipodi:namedview
     pagecolor="#ffffff"
     bordercolor="#666666"
     borderopacity="1"
     objecttolerance="10"
     gridtolerance="10"
     guidetolerance="10"
     inkscape:pageopacity="0"
     inkscape:pageshadow="2"
     inkscape:window-width="1920"
     inkscape:window-height="1018"
     id="namedview80"
     showgrid="false"
     inkscape:snap-smooth-nodes="true"
     inkscape:snap-midpoints="true"
     inkscape:snap-others="true"
     inkscape:snap-object-midpoints="true"
     inkscape:snap-center="true"
     inkscape:snap-page="true"
     inkscape:snap-bbox="true"
     inkscape:snap-bbox-edge-midpoints="true"
     inkscape:bbox-nodes="true"
     inkscape:snap-bbox-midpoints="true"
     inkscape:bbox-paths="true"
     inkscape:object-paths="true"
     inkscape:snap-intersection-paths="true"
     inkscape:snap-text-baseline="true"
     inkscape:zoom="0.796875"
     inkscape:cx="-62.525717"
     inkscape:cy="281.68266"
     inkscape:window-x="0"
     inkscape:window-y="30"
     inkscape:window-maximized="1"
     inkscape:current-layer="Layer_1" />
  <defs
     id="defs67">
    <style
       id="style65">.cls-1{fill:#ffd38d;}.cls-2{fill:#6d4135;}.cls-3{opacity:0.1;}</style>
  </defs>
  <title
     id="title69">plus-flat</title>
  <path
     class="cls-1"
     d="M256,0C114.84,0,0,114.84,0,256S114.84,512,256,512,512,397.16,512,256,397.16,0,256,0Z"
     id="path71" />
  <path
     class="cls-2"
     d="M341.33,234.67h-64v-64a21.33,21.33,0,1,0-42.67,0v64h-64a21.33,21.33,0,1,0,0,42.67h64v64a21.33,21.33,0,1,0,42.67,0v-64h64a21.33,21.33,0,1,0,0-42.67Z"
     id="path73" />
  <g
     class="cls-3"
     id="g77"
     inkscape:transform-center-x="-36.852322"
     inkscape:transform-center-y="-36.693729"
     transform="matrix(0.70268629,-0.70132967,0.71164701,0.71283708,-106.07437,253.05203)">
    <path
       d="M 512,256 C 512,397.12 397.12,512 256,512 V 0 c 141.12,0 256,114.88 256,256 z"
       id="path75" />
  </g>
</svg>
