<?xml version="1.0" encoding="UTF-8" standalone="no"?>
<svg
   xmlns:dc="http://purl.org/dc/elements/1.1/"
   xmlns:cc="http://creativecommons.org/ns#"
   xmlns:rdf="http://www.w3.org/1999/02/22-rdf-syntax-ns#"
   xmlns:svg="http://www.w3.org/2000/svg"
   xmlns="http://www.w3.org/2000/svg"
   xmlns:sodipodi="http://sodipodi.sourceforge.net/DTD/sodipodi-0.dtd"
   xmlns:inkscape="http://www.inkscape.org/namespaces/inkscape"
   style="isolation:isolate"
   viewBox="0 0 450 450"
   width="450"
   height="450"
   version="1.1"
   id="svg190"
   sodipodi:docname="Eraser-3.svg"
   inkscape:version="1.0.2 (e86c870879, 2021-01-15)">
  <metadata
     id="metadata194">
    <rdf:RDF>
      <cc:Work
         rdf:about="">
        <dc:format>image/svg+xml</dc:format>
        <dc:type
           rdf:resource="http://purl.org/dc/dcmitype/StillImage" />
        <dc:title></dc:title>
      </cc:Work>
    </rdf:RDF>
  </metadata>
  <sodipodi:namedview
     pagecolor="#ffffff"
     bordercolor="#666666"
     borderopacity="1"
     objecttolerance="10"
     gridtolerance="10"
     guidetolerance="10"
     inkscape:pageopacity="0"
     inkscape:pageshadow="2"
     inkscape:window-width="1398"
     inkscape:window-height="1001"
     id="namedview192"
     showgrid="false"
     inkscape:snap-bbox="true"
     inkscape:bbox-paths="true"
     inkscape:bbox-nodes="true"
     inkscape:snap-bbox-edge-midpoints="true"
     inkscape:snap-bbox-midpoints="true"
     inkscape:snap-smooth-nodes="true"
     inkscape:snap-intersection-paths="true"
     inkscape:object-paths="true"
     inkscape:snap-midpoints="true"
     inkscape:snap-object-midpoints="true"
     inkscape:snap-center="true"
     inkscape:snap-page="true"
     inkscape:zoom="1"
     inkscape:cx="157.8048"
     inkscape:cy="106.68659"
     inkscape:window-x="399"
     inkscape:window-y="30"
     inkscape:window-maximized="0"
     inkscape:current-layer="Group" />
  <defs
     id="defs179">
    <clipPath
       id="_clipPath_g0x0LlUWamVb8yawPXz3PpqE7y0spMoR">
      <rect
         width="450"
         height="450"
         id="rect176" />
    </clipPath>
  </defs>
  <g
     clip-path="url(#_clipPath_g0x0LlUWamVb8yawPXz3PpqE7y0spMoR)"
     id="g188"
     transform="translate(-2.9379401,8.0125406)">
    <g
       id="Group">
      <path
         d="M 300.443,304.48202 434.51057,173.32998 c 3.86525,-3.7655 6.03879,-8.8813 6.03879,-14.21611 0,-5.33584 -2.17354,-10.45164 -6.03879,-14.2161 L 307.20559,20.348841 c -8.05207,-7.871426 -21.10393,-7.871426 -29.15601,0 L 143.98201,151.47078 Z"
         fill="#607d8b"
         id="path181"
         style="stroke-width:1.04953;fill:#607d8b;fill-opacity:0.95710266" />
      <path
         d="m 399.31399,202.74429 28.308,-28.346 c 3.642,-3.628 5.69,-8.557 5.69,-13.697 0,-5.141 -2.048,-10.07 -5.69,-13.697 l -119.952,-120.001 c -7.587,-7.584 -19.885,-7.584 -27.472,0 l -28.307,28.317 z"
         fill="#546e7a"
         id="path183" />
      <path
         d="M 147.85175,147.68551 13.794023,278.84761 c -3.8649678,3.76579 -6.0381238,8.88175 -6.0377228,14.21656 4e-4,5.33584 2.174324,10.45148 6.0398568,14.21565 L 141.11048,431.8192 c 8.05266,7.87081 21.10452,7.86983 29.15601,-0.002 l 134.05773,-131.132 z"
         fill="#607d8b"
         id="path196"
         style="stroke-width:1.04953;fill:#adabc5;fill-opacity:0.88402957" />
    </g>
  </g>
</svg>
